<?xml version="1.0" encoding="utf-8"?>
<!-- Generator: Adobe Illustrator 15.0.0, SVG Export Plug-In . SVG Version: 6.00 Build 0)  -->
<!DOCTYPE svg PUBLIC "-//W3C//DTD SVG 1.1//EN" "http://www.w3.org/Graphics/SVG/1.1/DTD/svg11.dtd">
<svg version="1.1" id="Ebene_1" xmlns="http://www.w3.org/2000/svg" xmlns:xlink="http://www.w3.org/1999/xlink" x="0px" y="0px"
	 width="1100px" height="1100px" viewBox="0 0 1100 1100" enable-background="new 0 0 1100 1100" xml:space="preserve">
<path fill-rule="evenodd" clip-rule="evenodd" fill="#FFFFFF" d="M519.804,0C360.176,7.217,247.605,72.689,160.687,159.608
	C73.588,246.707,7.577,357.848,0,519.804C0,346.533,0,173.274,0,0C173.272,0,346.531,0,519.804,0z"/>
<path fill-rule="evenodd" clip-rule="evenodd" d="M519.804,0c20.131,0,40.262,0,60.392,0
	c161.555,7.866,274.621,74.034,360.196,159.608c85.565,85.564,151.746,198.643,159.607,360.196c0,20.131,0,40.262,0,60.392
	c-7.865,161.555-74.033,274.621-159.607,360.196c-85.564,85.565-198.644,151.746-360.196,159.607c-20.13,0-40.261,0-60.392,0
	c-161.554-7.865-274.622-74.033-360.196-159.607C74.043,854.828,7.862,741.75,0,580.196c0-20.13,0-40.261,0-60.392
	c7.577-161.957,73.588-273.098,160.687-360.196C247.605,72.689,360.176,7.217,519.804,0z M1067.648,574.805
	c4.994-118.534-28.558-214.071-73.334-290.098c-43.537-73.924-103.57-135.667-181.177-181.177
	c-77.05-45.184-174.219-76.754-292.255-71.177c-102.8,4.858-191.906,41.81-262.059,89.51
	c-71.483,48.605-126.209,109.017-165,182.255c-40.229,75.954-69.026,173.192-60.392,284.706
	c7.62,98.418,39.725,180.389,81.961,243.726c2.906,4.356,6.083,10.685,8.627,9.706c38.621-115.232,116.356-191.357,253.432-208.138
	c39.059,62.947,89.414,125.532,193.04,117.549c79.67-6.137,123.495-65.971,157.45-117.549
	c132.725,19.696,211.072,93.765,248.039,209.216C1024.639,771.942,1062.89,687.698,1067.648,574.805z"/>
<path fill-rule="evenodd" clip-rule="evenodd" fill="#FFFFFF" d="M580.196,0C753.469,0,926.727,0,1100,0
	c0,173.271,0,346.531,0,519.804c-7.861-161.553-74.042-274.631-159.607-360.196C854.817,74.034,741.751,7.866,580.196,0z"/>
<path fill-rule="evenodd" clip-rule="evenodd" fill="#FFFFFF" d="M975.98,843.334c-36.967-115.451-115.314-189.52-248.039-209.216
	c-33.955,51.578-77.78,111.412-157.45,117.549c-103.626,7.983-153.98-54.602-193.04-117.549
	c-137.075,16.78-214.811,92.905-253.432,208.138c-2.544,0.979-5.722-5.35-8.627-9.706c-42.236-63.337-74.341-145.308-81.961-243.726
	c-8.634-111.514,20.163-208.752,60.392-284.706c38.791-73.238,93.517-133.65,165-182.255c70.153-47.7,159.259-84.652,262.059-89.51
	c118.036-5.577,215.205,25.993,292.255,71.177c77.606,45.51,137.64,107.253,181.177,181.177
	c44.776,76.027,78.328,171.564,73.334,290.098C1062.89,687.698,1024.639,771.942,975.98,843.334z M450.785,211.373
	c-66.576,45.647-113.089,135.276-107.843,248.04c3.305,71.042,27.073,129.054,62.549,173.627
	c34.372,43.186,88.257,81.209,161.765,75.49c62.065-4.83,111.976-46.485,143.431-92.745
	c31.938-46.973,54.278-107.521,50.687-186.569c-3.117-68.637-27.379-131.582-61.471-174.706
	c-32.234-40.776-91.024-81.997-161.765-75.49C502.855,182.265,474.343,195.22,450.785,211.373z"/>
<path fill-rule="evenodd" clip-rule="evenodd" d="M538.138,179.02c70.74-6.506,129.53,34.714,161.765,75.49
	c34.092,43.125,58.354,106.069,61.471,174.706c3.592,79.048-18.748,139.596-50.687,186.569
	c-31.455,46.26-81.365,87.915-143.431,92.745c-73.508,5.719-127.393-32.305-161.765-75.49
	c-35.476-44.573-59.244-102.585-62.549-173.627c-5.246-112.764,41.267-202.393,107.843-248.04
	C474.343,195.22,502.855,182.265,538.138,179.02z"/>
<path fill-rule="evenodd" clip-rule="evenodd" fill="#FFFFFF" d="M0,580.196C7.862,741.75,74.043,854.828,159.608,940.393
	c85.575,85.574,198.642,151.742,360.196,159.607c-173.271,0-346.53,0-519.804,0C0,926.729,0,753.471,0,580.196z"/>
<path fill-rule="evenodd" clip-rule="evenodd" fill="#FFFFFF" d="M1100,580.196c0,173.272,0,346.53,0,519.804
	c-173.271,0-346.529,0-519.804,0c161.553-7.861,274.632-74.042,360.196-159.607C1025.967,854.817,1092.135,741.751,1100,580.196z"/>
</svg>
